<?xml version="1.0"?>
<svg xmlns="http://www.w3.org/2000/svg" xmlns:xlink="http://www.w3.org/1999/xlink" xmlns:svgjs="http://svgjs.com/svgjs" version="1.1" width="512" height="512" x="0" y="0" viewBox="0 0 512 512" style="enable-background:new 0 0 512 512" xml:space="preserve" class=""><rect width="512" height="512" fill="#ffffff" shape="square" transform="matrix(0.85,0,0,0.85,38.400000000000006,38.400000000000006)"/><g transform="matrix(0.5,0,0,0.5,128,128.00000000000006)"><path xmlns="http://www.w3.org/2000/svg" d="m64 0h384c35.347656 0 64 28.652344 64 64v384c0 35.347656-28.652344 64-64 64h-384c-35.347656 0-64-28.652344-64-64v-384c0-35.347656 28.652344-64 64-64zm0 0" fill="#ffc32c" data-original="#ffc32c" style=""/><path xmlns="http://www.w3.org/2000/svg" d="m256 76.929688-176 114.382812v113.375l176 114.382812 176-114.382812v-113.375zm115.519531 171.070312 28.480469-18.511719v37.023438zm15.121094-48-44.480469 28.910156-86.160156-55.980468-86.160156 56-44.480469-28.929688 130.640625-84.929688zm-73.839844 48-56.800781 36.929688-56.800781-36.929688 56.800781-36.929688zm-172.320312 0-28.480469 18.511719v-37.023438zm-15.121094 48 44.480469-28.910156 86.160156 55.980468 86.160156-56 44.480469 28.914063-130.640625 84.945313zm0 0" fill="#ffffff" data-original="#ffffff" style="" class=""/></g></svg>
